Coordinates
version=1
nRows=22
nColumns=24
inDegrees=yes

Units are S.I. units (second, meters, Newtons, ...)
Angles are in degrees.

endheader
time	pelvis_tilt	pelvis_list	pelvis_rotation	pelvis_tx	pelvis_ty	pelvis_tz	hip_flexion_r	hip_adduction_r	hip_rotation_r	knee_angle_r	ankle_angle_r	subtalar_angle_r	mtp_angle_r	hip_flexion_l	hip_adduction_l	hip_rotation_l	knee_angle_l	ankle_angle_l	subtalar_angle_l	mtp_angle_l	lumbar_extension	lumbar_bending	lumbar_rotation
      1.06650000	      0.97619146	     -3.76613615	      3.54340711	      0.39677916	      1.03619964	      0.31980669	      6.75116019	     10.54455337	      0.25737316	    -13.40918013	      4.06962350	    -12.03609359	      7.84962148	     14.18279923	     -7.00257262	     -2.90437458	    -56.20596266	      6.19902941	      4.96692148	      3.89595484	     -7.50160328	      3.23318472	     -2.76772527
      1.07066667	      1.03783725	     -3.70513869	      3.35202485	      0.40135386	      1.03668922	      0.32038992	      6.25054145	     10.53479981	      0.44913634	    -13.14679168	      4.17156832	    -11.95795556	      7.81633530	     14.54875899	     -6.94705759	     -3.00415089	    -55.59976972	      6.66329034	      4.74664632	      3.85456578	     -7.64599548	      3.12443633	     -2.52429898
      1.07483333	      1.03074850	     -3.65597371	      3.18446182	      0.40596121	      1.03704325	      0.32094018	      5.82842843	     10.52593280	      0.58612292	    -12.88584730	      4.23768993	    -11.86758304	      7.80003676	     14.98892177	     -6.89169431	     -3.06619666	    -54.96808626	      7.10278251	      4.51758984	      3.83623436	     -7.65890736	      3.01615905	     -2.43819597
      1.07900000	      1.07296288	     -3.59111706	      3.01784166	      0.41056104	      1.03747593	      0.32148557	      5.33882225	     10.50387166	      0.76740905	    -12.60020086	      4.32538118	    -11.78269870	      7.75779543	     15.35176359	     -6.81473547	     -3.11626773	    -54.27082326	      7.45361510	      4.27081752	      3.77931214	     -7.74286454	      2.90150045	     -2.21957497
      1.08316667	      1.04762516	     -3.55565681	      2.87575564	      0.41515597	      1.03775179	      0.32198977	      4.93500539	     10.50325789	      0.89961866	    -12.32808130	      4.38870293	    -11.67962678	      7.75023361	     15.79684142	     -6.75973457	     -3.12745835	    -53.56634187	      7.82927827	      4.08160435	      3.77063812	     -7.72047972	      2.82763809	     -2.18406279
      1.08733333	      1.08752663	     -3.47656305	      2.69156398	      0.41971593	      1.03812083	      0.32255557	      4.46639971	     10.46274327	      1.08855847	    -12.08095761	      4.49368319	    -11.62894768	      7.70969573	     16.13271191	     -6.66944414	     -3.19684449	    -52.79121344	      8.13572256	      3.75065709	      3.71184718	     -7.83251397	      2.68884436	     -1.97457613
      1.09150000	      1.06754072	     -3.42541547	      2.53292331	      0.42428654	      1.03833888	      0.32308197	      4.06780269	     10.44440862	      1.24410133	    -11.83523447	      4.57663704	    -11.55875925	      7.67966199	     16.54052218	     -6.59925828	     -3.22417353	    -52.00965714	      8.45890685	      3.49147742	      3.66764373	     -7.84321731	      2.58294759	     -1.86316241
      1.09566667	      1.09409520	     -3.37551451	      2.38789812	      0.42886462	      1.03862406	      0.32358482	      3.60507394	     10.42777949	      1.40321621	    -11.55782938	      4.66024158	    -11.49647066	      7.62610478	     16.88068853	     -6.52589978	     -3.23360546	    -51.17426994	      8.68611104	      3.19707999	      3.58480997	     -7.89917890	      2.47007864	     -1.69138425
      1.09983333	      1.05822063	     -3.32527746	      2.23014978	      0.43341812	      1.03875617	      0.32409240	      3.23350609	     10.40618468	      1.56548999	    -11.33115085	      4.75312921	    -11.44120333	      7.59242664	     17.28145159	     -6.44950199	     -3.24585192	    -50.32207845	      8.95140971	      2.92275189	      3.52996679	     -7.89799680	      2.37330730	     -1.60293589
      1.10400000	      1.05393550	     -3.27869229	      2.08487859	      0.43798591	      1.03893073	      0.32457295	      2.81722536	     10.38675447	      1.72504803	    -11.08021584	      4.84216463	    -11.38944431	      7.54737493	     17.63137481	     -6.37095544	     -3.23659833	    -49.42088256	      9.12726977	      2.61308233	      3.45323481	     -7.92223828	      2.27624222	     -1.47339025
      1.10816667	      1.03185694	     -3.22868738	      1.93839291	      0.44254732	      1.03904470	      0.32505287	      2.42873553	     10.36193182	      1.88602986	    -10.84623496	      4.93543773	    -11.33810072	      7.50799543	     17.98938927	     -6.28686743	     -3.22517866	    -48.49040326	      9.29287939	      2.31000458	      3.38207524	     -7.93053246	      2.17065892	     -1.37136745
      1.11233333	      1.01058946	     -3.19048912	      1.79975585	      0.44710507	      1.03911918	      0.32551133	      2.03988469	     10.34759952	      2.04129596	    -10.60964635	      5.02850015	    -11.29514877	      7.46645475	     18.33832343	     -6.21093730	     -3.19592907	    -47.53208255	      9.41249261	      1.98670501	      3.30352284	     -7.93841828	      2.08175838	     -1.26295910
      1.11650000	      0.99387670	     -3.15721670	      1.66278280	      0.45166564	      1.03917592	      0.32594884	      1.64685713	     10.33578680	      2.20095330	    -10.37370906	      5.12156484	    -11.25843643	      7.41916654	     18.66997431	     -6.13767257	     -3.16157951	    -46.54204484	      9.48384185	      1.65445332	      3.21120223	     -7.94994282	      1.99726479	     -1.14812909
      1.12066667	      0.94753963	     -3.12763665	      1.52756124	      0.45622288	      1.03914362	      0.32638213	      1.29438682	     10.32631678	      2.36076894	    -10.15514734	      5.21686099	    -11.23017205	      7.37220296	     19.02553593	     -6.06476015	     -3.11395905	    -45.52892223	      9.53018589	      1.32935567	      3.11480220	     -7.92668459	      1.92295195	     -1.04637490
      1.12483333	      0.91998539	     -3.10586692	      1.39351572	      0.46078560	      1.03912021	      0.32679674	      0.92133584	     10.32304785	      2.51913138	     -9.93544787	      5.31207670	    -11.19915660	      7.32370862	     19.34662081	     -5.99935835	     -3.06329514	    -44.48229894	      9.53490685	      0.99140755	      3.01119928	     -7.92511297	      1.85426255	     -0.94483745
      1.12900000	      0.88992669	     -3.08480000	      1.26379064	      0.46534660	      1.03905532	      0.32718129	      0.55403544	     10.31727616	      2.67630916	     -9.72103431	      5.41133869	    -11.17191458	      7.27198990	     19.66072230	     -5.93032396	     -3.00344005	    -43.41147662	      9.49888653	      0.64455272	      2.89621540	     -7.92074558	      1.79383557	     -0.84213198
      1.13316667	      0.86758892	     -3.07400526	      1.14681277	      0.46992652	      1.03897332	      0.32754148	      0.17573611	     10.32032363	      2.81430493	     -9.49926916	      5.50752426	    -11.14705115	      7.19834204	     19.95797866	     -5.86786588	     -2.92623306	    -42.31619058	      9.41039891	      0.28026103	      2.73199499	     -7.91782140	      1.75305403	     -0.71755770
      1.13733333	      0.80245827	     -3.05584075	      0.99566365	      0.47448926	      1.03878105	      0.32794522	     -0.13625178	     10.31464539	      2.99983678	     -9.32803588	      5.63180985	    -11.11694396	      7.15370718	     20.28625349	     -5.81141043	     -2.89109428	    -41.20237075	      9.34283204	     -0.02912969	      2.62099779	     -7.88419480	      1.68248837	     -0.65101204
      1.14150000	      0.76698386	     -3.05567395	      0.86804966	      0.47906898	      1.03861432	      0.32828417	     -0.48702847	     10.32405052	      3.15170449	     -9.13776091	      5.74044342	    -11.08348823	      7.10244398	     20.57483378	     -5.76155702	     -2.81802923	    -40.06193064	      9.20104791	     -0.38999033	      2.49181630	     -7.87082836	      1.65016352	     -0.55156014
      1.14566667	      0.71536573	     -3.06690108	      0.75563046	      0.48365638	      1.03836515	      0.32858918	     -0.81766333	     10.34316008	      3.27500165	     -8.94890890	      5.85344798	    -11.04824519	      7.02292609	     20.88149398	     -5.71782884	     -2.72489299	    -38.91716341	      9.03595911	     -0.75918154	      2.29525255	     -7.83298343	      1.64226168	     -0.42805877
      1.14983333	      0.64980061	     -3.07405867	      0.62089828	      0.48824613	      1.03807772	      0.32891731	     -1.12344842	     10.35623183	      3.43019214	     -8.78880987	      5.98561153	    -11.00644391	      6.94611507	     21.18571699	     -5.67973824	     -2.66163904	    -37.74777416	      8.85313940	     -1.09939428	      2.09813132	     -7.78806012	      1.61983110	     -0.33029914
      1.15400000	      0.60922428	     -3.08627568	      0.46235248	      0.49283412	      1.03779974	      0.32927893	     -1.44965157	     10.37363191	      3.61764107	     -8.64919645	      6.13191061	    -10.95945368	      6.90620549	     21.45009345	     -5.67019548	     -2.66257871	    -36.56436796	      8.67383723	     -1.34098708	      1.98220424	     -7.78667565	      1.58781900	     -0.27040699
